<svg xmlns="http://www.w3.org/2000/svg" viewBox="0 0 59.78 59.78"><defs><style>.cls-1{fill:#c2002e;}.cls-2{fill:#fff;}.cls-3{fill:#e6e6e6;}.cls-4{fill:#b3b3b3;}.cls-5{fill:#c0e5fa;}</style></defs><title>btn_ft_tel</title><g id="レイヤー_2" data-name="レイヤー 2"><g id="レイヤー_1-2" data-name="レイヤー 1"><circle class="cls-1" cx="29.89" cy="29.89" r="29.89"/><path class="cls-2" d="M36,13.55H23.73A2.69,2.69,0,0,0,21,16.25l0,29.36a2.7,2.7,0,0,0,2.69,2.69H36a2.69,2.69,0,0,0,2.69-2.7l0-29.35A2.7,2.7,0,0,0,36,13.55Z"/><path class="cls-2" d="M23.75,48.46h0a2.86,2.86,0,0,1-2.85-2.85l0-29.36a2.81,2.81,0,0,1,.83-2,2.85,2.85,0,0,1,2-.84H36a2.86,2.86,0,0,1,2.85,2.85l0,29.35A2.85,2.85,0,0,1,36,48.45Z"/><path class="cls-3" d="M27.66,15.62l4.63,0a.24.24,0,0,1,0,.47l-4.63,0a.23.23,0,0,1-.23-.23A.23.23,0,0,1,27.66,15.62Z"/><path class="cls-4" d="M32.29,16.28h0l-4.62,0a.36.36,0,0,1-.28-.12.4.4,0,0,1,.28-.67l4.63,0a.36.36,0,0,1,.28.12.43.43,0,0,1,.11.28A.38.38,0,0,1,32.29,16.28Z"/><rect class="cls-5" x="19.06" y="23.03" width="21.65" height="14.29" transform="translate(-0.48 59.86) rotate(-89.63)"/><path class="cls-4" d="M23.3,19.8l13.29.09-.13,20.65-13.29-.09L23.3,19.8m-1-1-.15,22.65,15.29.1L37.6,18.9l-15.29-.1Z"/></g></g></svg>