<svg xmlns="http://www.w3.org/2000/svg" viewBox="0 0 59.78 59.78"><defs><style>.cls-1{fill:#f19d26;}.cls-2{fill:#d1ecfb;}.cls-3{fill:#8fc4d7;}.cls-4{fill:#fff;}</style></defs><title>btn_ft_mail</title><g id="レイヤー_2" data-name="レイヤー 2"><g id="レイヤー_1-2" data-name="レイヤー 1"><circle class="cls-1" cx="29.89" cy="29.89" r="29.89"/><path class="cls-2" d="M16.05,22a1.8,1.8,0,0,1,1.8-1.8H41.94a1.8,1.8,0,0,1,1.8,1.8V37.77a1.8,1.8,0,0,1-1.8,1.8H17.85a1.8,1.8,0,0,1-1.8-1.81Z"/><path class="cls-3" d="M25.57,29.5l-9.4,8.84a1.82,1.82,0,0,0,1.68,1.23H41.93a1.81,1.81,0,0,0,1.68-1.22l-9.5-9Z"/><path class="cls-4" d="M25.57,30l-9.4,8.38a1.8,1.8,0,0,0,1.68,1.17H41.93a1.79,1.79,0,0,0,1.68-1.16l-9.5-8.48Z"/><path class="cls-3" d="M16.17,21.48,29.89,34.9,43.61,21.49a1.79,1.79,0,0,0-1.67-1.27H17.85A1.81,1.81,0,0,0,16.17,21.48Z"/><path class="cls-4" d="M16.17,21.37,29.89,33.61,43.61,21.38a1.77,1.77,0,0,0-1.67-1.16H17.85A1.79,1.79,0,0,0,16.17,21.37Z"/></g></g></svg>