<svg xmlns="http://www.w3.org/2000/svg" viewBox="0 0 150.56 32.61"><defs><style>.cls-1{fill:#be002e;}</style></defs><title>logo</title><g id="レイヤー_2" data-name="レイヤー 2"><g id="レイヤー_1-2" data-name="レイヤー 1"><rect class="cls-1" width="32.96" height="5.61"/><polygon class="cls-1" points="0 18.93 27.35 18.93 27.35 26.64 0 26.64 0 32.26 32.96 32.26 32.96 13.32 0 13.32 0 18.93"/><path class="cls-1" d="M71.09,9.05H63.43l-1.52,2.88H59.7L66.16,0h2.25l6.44,11.93H72.62Zm-.91-1.74L67.27,1.79,64.35,7.31Z"/><path class="cls-1" d="M89.79,8.66c0,2.15-1.76,3.27-4.57,3.27H76.66V0h8.06c2.63,0,4.38,1.07,4.38,3a2.6,2.6,0,0,1-2.59,2.72c1.86.11,3.28,1,3.28,2.91M78.67,5H84.4c1.6,0,2.68-.36,2.68-1.67S86,1.7,84.4,1.7H78.67Zm9,3.43c0-1.35-1.08-1.78-2.87-1.78H78.67v3.55h6.15c1.79,0,2.87-.43,2.87-1.77"/><path class="cls-1" d="M105,8.66c0,2.15-1.75,3.27-4.56,3.27H91.88V0h8.06c2.63,0,4.38,1.07,4.38,3a2.6,2.6,0,0,1-2.59,2.72c1.86.11,3.27,1,3.27,2.91M93.89,5h5.73c1.6,0,2.67-.36,2.67-1.67S101.22,1.7,99.62,1.7H93.89Zm9,3.43c0-1.35-1.08-1.78-2.87-1.78H93.89v3.55H100c1.79,0,2.87-.43,2.87-1.77"/><rect class="cls-1" x="107.09" width="2.05" height="11.93"/><polygon class="cls-1" points="124.11 1.79 118.67 1.79 118.67 11.93 116.63 11.93 116.63 1.79 111.22 1.79 111.22 0 124.11 0 124.11 1.79"/><path class="cls-1" d="M56.31,28.69l1.89.94a7.22,7.22,0,0,1-6.32,3c-4.47,0-7.28-2.4-7.28-6.32S47.41,20,52,20a7.19,7.19,0,0,1,6.22,3l-1.91.95a4.69,4.69,0,0,0-4.34-2.11c-3.16,0-5.25,1.53-5.25,4.52s2.09,4.52,5.25,4.52a4.75,4.75,0,0,0,4.38-2.12"/><polygon class="cls-1" points="87.58 30.46 87.58 32.26 75.7 32.26 75.7 20.32 87.58 20.32 87.58 22.11 77.73 22.11 77.73 25.3 85.88 25.3 85.88 27.09 77.73 27.09 77.73 30.46 87.58 30.46"/><path class="cls-1" d="M100.77,29.37H93.12L91.6,32.25H89.39l6.46-11.93H98.1l6.44,11.93h-2.23Zm-.9-1.74L97,22.11,94,27.63Z"/><polygon class="cls-1" points="116.37 22.11 110.94 22.11 110.94 32.26 108.89 32.26 108.89 22.11 103.48 22.11 103.48 20.32 116.37 20.32 116.37 22.11"/><rect class="cls-1" x="118.47" y="20.32" width="2.05" height="11.93"/><polygon class="cls-1" points="124.58 20.32 129.61 30.16 134.64 20.32 136.88 20.32 130.69 32.26 128.5 32.26 122.32 20.32 124.58 20.32"/><path class="cls-1" d="M54,7.5c2.08-.37,3.52-1.64,3.52-3.7,0-2.47-2-3.8-4.83-3.8H44.6V11.93h2l0-10.14h6c1.71,0,2.87.55,2.87,2s-1.16,2-2.87,2H50.11l5.26,6.08h2.52Z"/><path class="cls-1" d="M69.74,27.82c2.08-.37,3.51-1.63,3.51-3.7,0-2.47-2-3.8-4.83-3.8H60.31V32.26h2V22.11h6c1.7,0,2.86.55,2.86,2s-1.16,2-2.86,2H65.82l5.26,6.09h2.53Z"/><polygon class="cls-1" points="150.56 30.46 150.56 32.26 138.68 32.26 138.68 20.32 150.56 20.32 150.56 22.11 140.71 22.11 140.71 25.3 148.86 25.3 148.86 27.09 140.71 27.09 140.71 30.46 150.56 30.46"/></g></g></svg>