<svg xmlns="http://www.w3.org/2000/svg" viewBox="0 0 392.58 32.25"><defs><style>.cls-1{fill:#be002e;}</style></defs><title>logo_sp</title><g id="レイヤー_2" data-name="レイヤー 2"><g id="レイヤー_1-2" data-name="レイヤー 1"><rect class="cls-1" width="32.96" height="5.61"/><polygon class="cls-1" points="0 18.93 27.35 18.93 27.35 26.64 0 26.64 0 32.25 32.96 32.25 32.96 13.32 0 13.32 0 18.93"/><path class="cls-1" d="M98.28,21.68H84.51l-2.74,5.19h-4L89.41,5.39h4.06l11.6,21.48h-4Zm-1.62-3.13L91.41,8.61l-5.25,9.94Z"/><path class="cls-1" d="M132,21c0,3.86-3.16,5.89-8.23,5.89h-15.4V5.39h14.51c4.73,0,7.89,1.93,7.89,5.46a4.68,4.68,0,0,1-4.67,4.88c3.35.21,5.9,1.75,5.9,5.25m-20-6.54h10.31c2.88,0,4.82-.64,4.82-3s-1.94-3-4.82-3H111.94Zm16.23,6.17c0-2.43-1.93-3.19-5.15-3.19H111.94V23.8H123c3.22,0,5.15-.77,5.15-3.19"/><path class="cls-1" d="M159.34,21c0,3.86-3.16,5.89-8.22,5.89H135.71V5.39h14.52c4.72,0,7.89,1.93,7.89,5.46a4.68,4.68,0,0,1-4.67,4.88c3.35.21,5.89,1.75,5.89,5.25m-20-6.54h10.32c2.88,0,4.81-.64,4.81-3s-1.93-3-4.81-3H139.33Zm16.24,6.17c0-2.43-1.94-3.19-5.16-3.19H139.33V23.8h11.08c3.22,0,5.16-.77,5.16-3.19"/><rect class="cls-1" x="163.09" y="5.39" width="3.68" height="21.48"/><polygon class="cls-1" points="193.74 8.61 183.95 8.61 183.95 26.87 180.27 26.87 180.27 8.61 170.54 8.61 170.54 5.39 193.74 5.39 193.74 8.61"/><path class="cls-1" d="M67.57,18.89c3.74-.68,6.32-3,6.32-6.66,0-4.45-3.68-6.84-8.69-6.84H50.6V26.87h3.68l0-18.26H65c3.07,0,5.15,1,5.15,3.65S68,15.91,65,15.91H60.52l9.47,11h4.54Z"/><path class="cls-1" d="M222.9,20.45l3.41,1.69c-2,3.13-6,5.37-11.39,5.37-8,0-13.1-4.32-13.1-11.38s5.06-11.39,13.25-11.39c5.28,0,9.21,2.27,11.21,5.34l-3.44,1.72C221.24,9.16,218.51,8,215,8c-5.68,0-9.45,2.77-9.45,8.14s3.77,8.13,9.45,8.13c3.5,0,6.26-1.14,7.89-3.81"/><polygon class="cls-1" points="279.2 23.65 279.2 26.87 257.8 26.87 257.8 5.38 279.2 5.38 279.2 8.61 261.46 8.61 261.46 14.35 276.13 14.35 276.13 17.57 261.46 17.57 261.46 23.65 279.2 23.65"/><path class="cls-1" d="M303,21.68H289.17l-2.73,5.19h-4L294.08,5.39h4.05l11.6,21.48h-4Zm-1.63-3.13-5.25-9.94-5.25,9.94Z"/><polygon class="cls-1" points="331.03 8.61 321.24 8.61 321.24 26.87 317.56 26.87 317.56 8.61 307.83 8.61 307.83 5.39 331.03 5.39 331.03 8.61"/><rect class="cls-1" x="334.8" y="5.39" width="3.68" height="21.48"/><polygon class="cls-1" points="345.81 5.39 354.86 23.09 363.92 5.39 367.94 5.39 356.8 26.87 352.87 26.87 341.73 5.39 345.81 5.39"/><path class="cls-1" d="M247.07,18.89c3.75-.68,6.33-3,6.33-6.66,0-4.45-3.69-6.84-8.69-6.84H230.1V26.87h3.68l0-18.26h10.71c3.07,0,5.16,1,5.16,3.65s-2.09,3.65-5.16,3.65H240l9.47,11H254Z"/><polygon class="cls-1" points="392.58 23.65 392.58 26.87 371.19 26.87 371.19 5.38 392.58 5.38 392.58 8.61 374.84 8.61 374.84 14.35 389.51 14.35 389.51 17.57 374.84 17.57 374.84 23.65 392.58 23.65"/></g></g></svg>